<svg width="79" height="79" viewBox="0 0 79 79" fill="none" xmlns="http://www.w3.org/2000/svg">
<circle cx="39.7144" cy="39.4624" r="39.2163" fill="#8CC328" fill-opacity="0.12"/>
<path d="M63.7178 64.34V34.9689C62.9079 34.7573 62.1796 34.3068 61.6299 33.6743C60.152 35.404 57.5522 35.6073 55.8226 34.1295C55.6594 33.99 55.5069 33.8375 55.3674 33.6743C53.8895 35.404 51.2897 35.6073 49.5601 34.1295C49.3969 33.99 49.2444 33.8375 49.1049 33.6743C47.6271 35.404 45.0273 35.6073 43.2976 34.1295C43.1344 33.99 42.9819 33.8375 42.8424 33.6743C41.3646 35.404 38.7648 35.6073 37.0351 34.1295C36.872 33.99 36.7194 33.8375 36.5799 33.6743C35.1021 35.404 32.5023 35.6073 30.7726 34.1295C30.6095 33.99 30.457 33.8375 30.3174 33.6743C28.8396 35.404 26.2398 35.6073 24.5101 34.1295C24.347 33.99 24.1945 33.8375 24.055 33.6743C22.5771 35.404 19.9773 35.6073 18.2477 34.1295C18.0845 33.99 17.932 33.8375 17.7925 33.6743C17.2427 34.3056 16.5156 34.7573 15.7046 34.9689V64.34H17.7925V50.7723C17.7925 46.7372 21.0638 43.4671 25.0977 43.4671C29.1316 43.4671 32.403 46.7384 32.403 50.7723V64.34H63.7178ZM34.4956 40.3364C34.4956 39.7595 34.9626 39.2925 35.5395 39.2925H60.5871C61.1641 39.2925 61.6311 39.7595 61.6311 40.3364V59.1227C61.6311 59.6996 61.1641 60.1666 60.5871 60.1666H35.5395C34.9626 60.1666 34.4956 59.6996 34.4956 59.1227V40.3364Z" fill="#8CC328"/>
<path d="M30.3213 22.5941H49.1076C49.6833 22.5941 50.1503 22.1271 50.1515 21.5502V9.02637C50.1515 8.4506 49.6845 7.9836 49.1076 7.98242H30.3213C29.7455 7.98242 29.2785 8.44942 29.2773 9.02637V21.5502C29.2785 22.1259 29.7455 22.5929 30.3213 22.5941ZM31.3652 11.1131C31.3652 10.5361 31.8322 10.0691 32.4092 10.0691H42.8463C43.4232 10.0691 43.8902 10.5361 43.8902 11.1131H44.9152C46.6543 11.1154 48.0636 12.5235 48.0648 14.2626C48.0624 15.9805 46.6709 17.3732 44.9531 17.3756H43.448C42.6181 19.2743 40.7442 20.5027 38.6717 20.5062H36.5838C33.7038 20.5027 31.3688 18.1689 31.3652 15.2877V11.1131Z" fill="#578A1C"/>
<path d="M45.977 14.2624C45.977 13.676 45.5006 13.2007 44.9142 13.2007H43.8892V15.2886H44.952C45.5171 15.2874 45.9759 14.8287 45.977 14.2624Z" fill="#578A1C"/>
<path d="M25.1028 45.5537C22.2228 45.5573 19.8878 47.8911 19.8843 50.7722V64.34H30.3214V50.7722C30.3178 47.8922 27.984 45.5573 25.1028 45.5537ZM24.0601 54.9468C24.0601 55.5238 23.5931 55.9908 23.0161 55.9908C22.4392 55.9908 21.9722 55.5238 21.9722 54.9468V53.9029C21.9722 53.326 22.4392 52.859 23.0161 52.859C23.5931 52.859 24.0601 53.326 24.0601 53.9029V54.9468Z" fill="#578A1C"/>
<path d="M66.0625 14.2451H52.2382V21.5504C52.2358 23.2788 50.836 24.6798 49.1075 24.681H30.3213C28.5928 24.6787 27.1918 23.2788 27.1906 21.5504V14.2451H13.3663L9.7876 26.7689H69.6412L66.0625 14.2451Z" fill="#8CC328"/>
<path d="M59.5432 55.9908H56.4125C55.8356 55.9908 55.3686 55.5238 55.3686 54.9468C55.3686 54.3699 55.8356 53.9029 56.4125 53.9029H59.5432V41.3791H55.8001L49.8438 47.3354C49.4289 47.7362 48.768 47.7244 48.3684 47.3094C47.9782 46.905 47.9782 46.2631 48.3684 45.8587L52.8492 41.3779H49.5388L37.015 53.9029H52.2379C52.8149 53.9029 53.2819 54.3699 53.2819 54.9468C53.2819 55.5238 52.8149 55.9908 52.2379 55.9908H36.5835V58.0787H59.5444V55.9908H59.5432ZM47.7571 49.4233L46.7132 50.4672C46.2982 50.868 45.6373 50.8562 45.2377 50.4412C44.8476 50.0369 44.8476 49.3949 45.2377 48.9906L46.2817 47.9466C46.6966 47.5458 47.3575 47.5577 47.7571 47.9726C48.1485 48.377 48.1485 49.0189 47.7571 49.4233Z" fill="#578A1C"/>
<path d="M36.5835 41.3789V51.3833L46.5879 41.3789H36.5835Z" fill="#578A1C"/>
<path d="M36.5838 18.4197H38.6717C40.4001 18.4173 41.8011 17.0175 41.8023 15.2891V12.1572H33.4531V15.2879C33.4543 17.0164 34.8553 18.4173 36.5838 18.4197Z" fill="#578A1C"/>
<path d="M16.7537 30.9434V28.8555H12.5791V30.9434C12.5791 32.0961 13.5131 33.0312 14.667 33.0312C15.8209 33.0312 16.7537 32.0961 16.7537 30.9434Z" fill="#578A1C"/>
<path d="M54.326 30.9434V28.8555H50.1514V30.9434C50.1514 32.0961 51.0854 33.0312 52.2393 33.0312C53.3932 33.0312 54.326 32.0961 54.326 30.9434Z" fill="#578A1C"/>
<path d="M66.8499 30.9434V28.8555H62.6753V30.9434C62.6753 32.0961 63.6093 33.0312 64.7632 33.0312C65.9171 33.0312 66.8499 32.0961 66.8499 30.9434Z" fill="#578A1C"/>
<path d="M23.0159 30.9434V28.8555H18.8413V30.9434C18.8413 32.0961 19.7753 33.0312 20.9292 33.0312C22.0831 33.0312 23.0159 32.0961 23.0159 30.9434Z" fill="#578A1C"/>
<path d="M68.9365 66.4268H10.4922C9.91642 66.4268 9.44942 66.8938 9.44824 67.4707V68.5146H69.9805V67.4707C69.9805 66.8949 69.5135 66.4279 68.9365 66.4268Z" fill="#8CC328"/>
<path d="M60.5872 30.9434V28.8555H56.4126V30.9434C56.4126 32.0961 57.3466 33.0312 58.5005 33.0312C59.6544 33.0312 60.5872 32.0961 60.5872 30.9434Z" fill="#578A1C"/>
<path d="M48.0638 30.9434V28.8555H43.8892V30.9434C43.8892 32.0961 44.8232 33.0312 45.977 33.0312C47.1309 33.0312 48.0638 32.0961 48.0638 30.9434Z" fill="#578A1C"/>
<path d="M35.5398 30.9434V28.8555H31.3652V30.9434C31.3652 32.0961 32.2992 33.0312 33.4531 33.0312C34.607 33.0312 35.5398 32.0961 35.5398 30.9434Z" fill="#578A1C"/>
<path d="M29.2771 30.9434V28.8555H25.1025V30.9434C25.1025 32.0961 26.0365 33.0312 27.1904 33.0312C28.3431 33.0301 29.2771 32.0961 29.2771 30.9434Z" fill="#578A1C"/>
<path d="M41.802 30.9434V28.8555H37.6274V30.9434C37.6274 32.0961 38.5614 33.0312 39.7153 33.0312C40.8669 33.0301 41.802 32.0961 41.802 30.9434Z" fill="#578A1C"/>
</svg>
