<svg width="79" height="80" viewBox="0 0 79 80" fill="none" xmlns="http://www.w3.org/2000/svg">
<path d="M54.3938 11.9766C54.3938 17.0164 50.3075 21.1027 45.2677 21.1027H44.1265V18.8203L48.689 16.5391V11.9766H54.3938Z" fill="#8CC328"/>
<path d="M62.3787 18.8205V21.1017H45.2676C50.3074 21.1017 54.3937 17.0154 54.3937 11.9756H57.8162V16.5381L62.3787 18.8205Z" fill="#8CC328"/>
<path d="M44.1265 50.7622H62.3787V63.3108H44.1265V50.7622Z" fill="#578A1C"/>
<path d="M62.3787 63.3098H44.1265C52.1404 63.3075 59.2981 58.2932 62.0358 50.7612H62.3776V63.3098H62.3787Z" fill="#578A1C"/>
<path d="M53.824 47.3404C54.7691 47.3404 55.5352 46.5743 55.5352 45.6292C55.5352 44.6841 54.7691 43.918 53.824 43.918C52.8789 43.918 52.1128 44.6841 52.1128 45.6292C52.1128 46.5743 52.8789 47.3404 53.824 47.3404Z" fill="#578A1C"/>
<path d="M59.5276 47.3404C60.4727 47.3404 61.2389 46.5743 61.2389 45.6292C61.2389 44.6841 60.4727 43.918 59.5276 43.918C58.5825 43.918 57.8164 44.6841 57.8164 45.6292C57.8164 46.5743 58.5825 47.3404 59.5276 47.3404Z" fill="#578A1C"/>
<path d="M16.7495 46.1987H38.4242V54.1837H16.7495V46.1987Z" fill="#578A1C"/>
<path d="M16.7495 56.4663H38.4242V64.4512H16.7495V56.4663Z" fill="#578A1C"/>
<path d="M38.4231 56.4663V64.4512H16.7495C26.4457 63.4931 36.0735 62.4886 38.4231 56.4663Z" fill="#578A1C"/>
<path d="M38.4231 46.1987V54.1837H16.7495C27.5405 54.2416 37.1463 53.4086 38.4231 46.1987Z" fill="#578A1C"/>
<path d="M24.7344 58.7476H29.2969V61.0288H24.7344V58.7476Z" fill="#8CC328"/>
<path d="M50.9717 53.0439H55.5342V55.3252H50.9717V53.0439Z" fill="#8CC328"/>
<path d="M29.2964 14.2583H37.2813V16.5395H29.2964V14.2583Z" fill="#578A1C"/>
<path d="M16.749 14.2583H31.5789V16.5395H16.749V14.2583Z" fill="#578A1C"/>
<path d="M13.3267 14.2583H19.0304V16.5395H13.3267V14.2583Z" fill="#578A1C"/>
<path d="M16.7495 11.9766H19.0308V29.0876H16.7495V11.9766Z" fill="#8CC328"/>
<path d="M29.2969 11.9766H31.5781V23.3839H29.2969V11.9766Z" fill="#8CC328"/>
<circle cx="39.564" cy="40.0532" r="39.2163" fill="#8CC328" fill-opacity="0.12"/>
<path d="M12.1855 40.4951H66.9424V69.0136H12.1855V40.4951Z" fill="#8CC328"/>
<path d="M66.9424 69.0136H12.1855C37.3963 67.234 56.9149 59.1459 66.9424 40.4951V69.0136Z" fill="#8CC328"/>
<path d="M49.8315 41.6363H47.5503V35.9326H52.1128V38.2139H49.8315V41.6363Z" fill="#578A1C"/>
<path d="M58.9565 41.6363H56.6753V38.2139H54.394V35.9326H58.9565V41.6363Z" fill="#578A1C"/>
<path d="M17.8892 32.5093C19.1491 32.5093 20.1704 31.4879 20.1704 30.228C20.1704 28.9681 19.1491 27.9468 17.8892 27.9468C16.6293 27.9468 15.6079 28.9681 15.6079 30.228C15.6079 31.4879 16.6293 32.5093 17.8892 32.5093Z" fill="#8CC328"/>
<path d="M36.1418 27.9469C36.1371 31.097 33.579 33.6459 30.4288 33.6413C27.2786 33.6366 24.7297 31.0785 24.7344 27.9283C24.739 24.7781 27.2972 22.2293 30.4473 22.2339C31.541 22.2362 32.6104 22.5513 33.5292 23.1445C35.1604 24.1965 36.1452 26.0062 36.1418 27.9469Z" fill="#8CC328"/>
<path d="M34.4303 26.2357C34.4349 29.3859 31.8861 31.944 28.7359 31.9487C27.6364 31.951 26.5589 31.6347 25.6355 31.038C23.9139 28.3999 24.6565 24.8663 27.2935 23.1435C29.1877 21.9073 31.6347 21.9073 33.5289 23.1435C34.121 24.0669 34.4338 25.1409 34.4303 26.2357Z" fill="#8CC328"/>
<path d="M9.9043 39.354H69.2236V41.6352H9.9043V39.354Z" fill="#578A1C"/>
<path d="M24.7344 49.6211H29.2969V51.9023H24.7344V49.6211Z" fill="#8CC328"/>
</svg>
