<svg width="79" height="79" viewBox="0 0 79 79" fill="none" xmlns="http://www.w3.org/2000/svg">
<circle cx="39.564" cy="39.4624" r="39.2163" fill="#8CC328" fill-opacity="0.12"/>
<path d="M26.2385 12.1572C25.3179 12.1572 24.5728 12.9024 24.5728 13.8229V25.705H21.2414V13.8229C21.2414 12.9024 20.4962 12.1572 19.5756 12.1572C18.6551 12.1572 17.9099 12.9024 17.9099 13.8229V25.705H14.5785V13.8229C14.5785 12.9024 13.8334 12.1572 12.9128 12.1572C11.9922 12.1572 11.2471 12.9024 11.2471 13.8229V27.3708V30.7022C11.2471 32.871 12.6441 34.7021 14.5785 35.3929V64.0165C14.5785 66.7716 16.8206 69.0137 19.5756 69.0137C22.3307 69.0137 24.5728 66.7716 24.5728 64.0165V35.3929C26.5072 34.7032 27.9042 32.871 27.9042 30.7022V27.3708V13.8229C27.9042 12.9024 27.1591 12.1572 26.2385 12.1572Z" fill="#8CC328"/>
<path d="M66.832 12.2762C66.2057 12.0275 65.4772 12.1818 65.0064 12.676C58.268 19.7797 54.5557 29.3087 54.5557 39.1009V47.3595C54.5557 48.2801 55.3008 49.0252 56.2214 49.0252H57.8871V64.0167C57.8871 66.7718 60.1291 69.0138 62.8842 69.0138C65.6393 69.0138 67.8814 66.7718 67.8814 64.0167V13.8231C67.8814 13.1413 67.4672 12.5283 66.832 12.2762Z" fill="#8CC328"/>
<path d="M39.5644 19.1714C36.6128 19.1714 33.7988 19.7699 31.2358 20.8504V30.7026C31.2358 31.6343 31.0282 32.5193 30.7339 33.3699C32.8505 30.8236 36.0009 29.1646 39.5644 29.1646C45.923 29.1646 51.2244 34.3372 51.2244 40.6958V39.1C51.2244 34.0951 52.1472 29.2179 53.8529 24.6405C50.0473 21.2513 45.0502 19.1714 39.5644 19.1714Z" fill="#578A1C"/>
<path d="M39.5643 32.2393C34.9003 32.2393 31.1069 36.0326 31.1069 40.6967C31.1069 45.3607 34.9003 49.154 39.5643 49.154C44.2283 49.154 48.0217 45.3607 48.0217 40.6967C48.0217 36.0326 44.2283 32.2393 39.5643 32.2393Z" fill="#8CC328"/>
<path d="M51.2243 47.3596V40.6968C51.2243 47.0554 45.9229 52.228 39.5643 52.228C33.2057 52.228 27.9043 47.0554 27.9043 40.6968V58.7642C31.2679 60.943 35.2668 62.2223 39.5643 62.2223C45.391 62.2223 50.6769 59.8858 54.5557 56.1124V52.0714C52.6169 51.384 51.2243 49.5317 51.2243 47.3596Z" fill="#578A1C"/>
</svg>
