<svg width="80" height="80" viewBox="0 0 80 80" fill="none" xmlns="http://www.w3.org/2000/svg">
<path d="M39.9374 12.3981C39.9374 11.8285 39.4761 11.3672 38.9065 11.3672H32.7199C32.1503 11.3672 31.689 11.8285 31.689 12.3981V13.429H39.9374V12.3981Z" fill="#8CC328"/>
<path d="M63.6528 67.0447V50.5479H16.2241V67.0447C16.2241 68.1839 17.1479 69.1065 18.2859 69.1065H61.591C62.7291 69.1065 63.6528 68.1828 63.6528 67.0447Z" fill="#8CC328"/>
<path d="M40.3322 15.4912H31.2965L30.2656 17.553H41.3643L40.3322 15.4912Z" fill="#8CC328"/>
<path d="M12.0993 48.4847H67.7764C68.134 48.4847 68.4656 48.2997 68.6528 47.9952C68.8401 47.6918 68.8581 47.3117 68.6979 46.9925L64.5743 38.7441C64.3995 38.3944 64.0431 38.1745 63.6528 38.1733H16.2241C15.8338 38.1733 15.4763 38.3944 15.3014 38.7441L11.1767 46.9936C11.0165 47.3128 11.0345 47.6929 11.2218 47.9963C11.409 48.2997 11.7417 48.4847 12.0993 48.4847Z" fill="#578A1C"/>
<circle cx="39.937" cy="40.0532" r="39.2163" fill="#8CC328" fill-opacity="0.12"/>
<path d="M48.1866 26.4251V24.5934C46.9516 24.1546 46.1259 22.9872 46.1248 21.6766C46.1474 19.978 47.5189 18.6053 49.2176 18.5839H54.4172L54.5469 18.3357C55.2846 17.1153 55.5451 15.6648 55.279 14.2639C54.9958 13.2105 54.2695 12.333 53.2882 11.8559C51.0019 10.6558 48.7416 11.6494 47.2426 14.5042L44.063 20.5656V25.8713C44.4047 25.8262 44.7488 25.8025 45.0939 25.8002C46.1553 25.807 47.2054 26.0191 48.1866 26.4251ZM49.7635 14.1512C49.8909 13.9087 50.1086 13.7271 50.3703 13.6459C50.632 13.5646 50.9151 13.5906 51.1564 13.718L52.7897 14.5753C53.2938 14.8403 53.489 15.464 53.2239 15.9682C52.9588 16.4724 52.3351 16.6675 51.8309 16.4025L50.1977 15.5453C49.9552 15.4178 49.7736 15.2001 49.6924 14.9384C49.6112 14.6768 49.636 14.3925 49.7635 14.1512Z" fill="#8CC328"/>
<path d="M48.631 28.9798C47.5967 28.2489 46.3605 27.8587 45.0938 27.8643C41.6785 27.8677 38.9106 30.6356 38.9072 34.0509C38.9061 34.7536 39.0268 35.4518 39.2637 36.1127H50.9229C51.1597 35.4507 51.2804 34.7536 51.2793 34.0509C51.2816 32.0286 50.2913 30.1337 48.631 28.9798Z" fill="#8CC328"/>
<path d="M60.5589 36.1126V34.0508H53.3413C53.3391 34.7467 53.2489 35.4392 53.0718 36.1126H60.5589Z" fill="#8CC328"/>
<path d="M48.1865 21.6777C48.1865 22.2473 48.6478 22.7086 49.2174 22.7086H52.3102C52.8798 22.7086 53.3411 23.17 53.3411 23.7396C53.3411 24.3092 52.8798 24.7705 52.3102 24.7705H50.2483V27.6331C50.3453 27.7109 50.448 27.7831 50.5427 27.8643H60.5597V24.7716H58.4979C57.9283 24.7716 57.467 24.3103 57.467 23.7407C57.467 23.1711 57.9283 22.7098 58.4979 22.7098H61.5906C62.1512 22.6883 62.6001 22.2394 62.6215 21.6789C62.6215 21.1093 62.1602 20.6479 61.5906 20.6479H49.2174C48.6569 20.6683 48.2068 21.1172 48.1865 21.6777Z" fill="#8CC328"/>
<path d="M60.5586 29.9258H52.2222C52.5989 30.5709 52.8854 31.2646 53.0749 31.9876H60.5586V29.9258Z" fill="#8CC328"/>
<path d="M32.1018 36.1129C32.5135 35.1338 32.7244 34.0815 32.721 33.0201C32.721 29.6082 30.719 26.8335 28.2567 26.8335C27.5879 26.8403 26.936 27.0445 26.3844 27.4223C26.1442 25.8962 25.2103 24.5676 23.8545 23.8265C23.3413 23.6032 22.7458 23.8333 22.5145 24.342C22.2822 24.8563 22.5021 25.462 23.0108 25.7056C23.5624 26.0417 23.9774 26.5606 24.185 27.1719C23.7395 26.952 23.2488 26.8358 22.7514 26.8324C20.2892 26.8324 18.2871 29.6071 18.2871 33.019C18.2849 34.0815 18.4969 35.1338 18.9109 36.1117H32.1018V36.1129Z" fill="#8CC328"/>
<path d="M34.783 33.0187C34.7807 34.0688 34.6138 35.1121 34.2901 36.1114H37.1155C36.9384 35.4381 36.8471 34.7455 36.8459 34.0496C36.8504 30.6918 38.8886 27.6701 42.0016 26.408V19.6157H29.6284V24.9575C32.5689 25.7561 34.783 29.0665 34.783 33.0187Z" fill="#8CC328"/>
</svg>
