<svg width="80" height="79" viewBox="0 0 80 79" fill="none" xmlns="http://www.w3.org/2000/svg">
<circle cx="39.8193" cy="39.4624" r="39.2163" fill="#8CC328" fill-opacity="0.12"/>
<g clip-path="url(#clip0_97_237)">
<path d="M63.2993 9.01367H41.8657C39.6417 9.01367 37.8325 10.8535 37.8325 13.1152V38.2355C38.6853 38.4887 39.5265 38.791 40.3515 39.1461C43.0964 40.3273 45.5601 42.016 47.6758 44.1676C49.7915 46.3191 51.4521 48.8246 52.6136 51.616C53.5424 53.8484 54.1151 56.1875 54.3295 58.5922C56.3645 59.0797 57.8833 60.9395 57.8833 63.1543V64.3262C57.8833 66.0676 57.3452 67.6836 56.4313 69.0137H63.2993C65.5233 69.0137 67.3325 67.1738 67.3325 64.9121V13.1152C67.3325 10.8535 65.5233 9.01367 63.2993 9.01367ZM59.0933 28.2324C60.0474 28.2324 60.8218 29.0199 60.8218 29.9902C60.8218 30.9605 60.0474 31.748 59.0933 31.748H46.0718C45.1176 31.748 44.3433 30.9605 44.3433 29.9902C44.3433 29.0199 45.1176 28.2324 46.0718 28.2324H59.0933ZM48.7222 19.4434C48.7222 18.473 49.4965 17.6855 50.4507 17.6855H54.7144C55.6685 17.6855 56.4429 18.473 56.4429 19.4434C56.4429 20.4137 55.6685 21.2012 54.7144 21.2012H50.4507C49.4965 21.2012 48.7222 20.4137 48.7222 19.4434ZM46.0718 38.7793C45.1176 38.7793 44.3433 37.9918 44.3433 37.0215C44.3433 36.0512 45.1176 35.2637 46.0718 35.2637H59.0933C60.0474 35.2637 60.8218 36.0512 60.8218 37.0215C60.8218 37.9918 60.0474 38.7793 59.0933 38.7793H46.0718Z" fill="#8CC328"/>
<path d="M29.6509 40.8967C20.3803 41.7205 12.9627 49.1092 11.9175 58.4666H50.8414C49.7962 49.1092 42.3774 41.7205 33.1079 40.8967V37.367V37.1162H34.3986C35.3527 37.1162 36.1271 36.3287 36.1271 35.3584C36.1271 34.3881 35.3527 33.6006 34.3986 33.6006H28.3603C27.4061 33.6006 26.6318 34.3881 26.6318 35.3584C26.6318 36.3287 27.4061 37.1162 28.3603 37.1162H29.6509V37.367V40.8967ZM24.3317 50.2729C23.0169 51.2139 21.9221 52.4701 21.165 53.9068C20.8539 54.4986 20.257 54.835 19.6405 54.835C19.3651 54.835 19.0851 54.7682 18.8258 54.6264C17.9846 54.1682 17.6677 53.1029 18.1182 52.2463C19.1288 50.3291 20.5889 48.6522 22.3427 47.3971C23.1229 46.8381 24.2015 47.0291 24.7511 47.8236C25.2996 48.617 25.113 49.7139 24.3317 50.2729ZM30.2271 48.3756C29.8514 48.3756 29.4734 48.3967 29.1024 48.4377C29.039 48.4447 28.9756 48.4482 28.9122 48.4482C28.0422 48.4482 27.2932 47.7814 27.1964 46.8814C27.0927 45.917 27.7783 45.0486 28.7267 44.9432C29.2211 44.8881 29.7258 44.86 30.2271 44.86C31.1812 44.86 31.9556 45.6475 31.9556 46.6178C31.9556 47.5881 31.1812 48.3756 30.2271 48.3756Z" fill="#578A1C"/>
<path d="M54.4263 64.3262V63.1543C54.4263 62.5074 53.91 61.9824 53.2739 61.9824H9.48486C8.84877 61.9824 8.33252 62.5074 8.33252 63.1543V64.3262C8.33252 66.9148 10.3964 69.0137 12.9419 69.0137H41.8657H49.8169C52.3624 69.0137 54.4263 66.9148 54.4263 64.3262Z" fill="#578A1C"/>
</g>
<defs>
<clipPath id="clip0_97_237">
<rect width="59" height="60" fill="white" transform="translate(8.33252 9.01367)"/>
</clipPath>
</defs>
</svg>
