<svg width="80" height="79" viewBox="0 0 80 79" fill="none" xmlns="http://www.w3.org/2000/svg">
<circle cx="39.937" cy="39.4624" r="39.2163" fill="#8CC328" fill-opacity="0.12"/>
<g clip-path="url(#clip0_97_236)">
<path d="M67.4397 29.1816H7.4502V31.6396C7.4502 34.3545 9.68848 36.5566 12.4506 36.5566H19.9506C22.7115 36.5566 24.951 34.3557 24.951 31.6396C24.951 34.3545 27.1893 36.5566 29.9514 36.5566H44.9514C47.7123 36.5566 49.9518 34.3557 49.9518 31.6396C49.9518 34.3545 52.19 36.5566 54.9522 36.5566H62.4522C65.2131 36.5566 67.4525 34.3557 67.4525 31.6396V29.1816H67.4397Z" fill="#578A1C"/>
<path d="M66.8363 26.7226L62.3539 11.2973C62.0469 10.2418 61.066 9.51465 59.9504 9.51465H48.5L52.0004 26.7226H66.8363Z" fill="#578A1C"/>
<path d="M26.4008 9.51465H14.9504C13.8348 9.51465 12.8539 10.2418 12.5469 11.2973L8.06445 26.7226H22.9004L26.4008 9.51465Z" fill="#578A1C"/>
<path d="M43.401 9.51465H31.4994L27.999 26.7226H46.9002L43.401 9.51465Z" fill="#578A1C"/>
<path d="M54.9497 39.0148C53.104 39.0159 51.3228 38.3453 49.9493 37.1318C48.5771 38.3453 46.7958 39.0159 44.9501 39.0148H29.9501C28.1044 39.0159 26.3231 38.3453 24.9497 37.1318C23.5763 38.3453 21.7962 39.0159 19.9493 39.0148H12.4493C11.5974 39.0125 10.7513 38.8673 9.94971 38.5849V66.0568C9.94971 67.4143 11.0688 68.5148 12.4493 68.5148H17.4497V46.3898C17.4497 45.0323 18.5688 43.9318 19.9493 43.9318H32.4497C33.8302 43.9318 34.9493 45.0323 34.9493 46.3898V68.5148H62.4497C63.8302 68.5148 64.9493 67.4143 64.9493 66.0568V38.5849C64.1466 38.8684 63.3017 39.0136 62.4497 39.0148H54.9497ZM57.4505 53.7648C57.4505 55.1222 56.3313 56.2227 54.9509 56.2227H42.4505C41.07 56.2227 39.9509 55.1222 39.9509 53.7648V46.3898C39.9509 45.0323 41.07 43.9318 42.4505 43.9318H54.9509C56.3313 43.9318 57.4505 45.0323 57.4505 46.3898V53.7648Z" fill="#8CC328"/>
<path d="M32.7627 68.5146H19.6377V47.6987C19.6377 46.9762 20.2342 46.3896 20.9689 46.3896H31.4314C32.1662 46.3896 32.7627 46.9762 32.7627 47.6987V68.5146Z" fill="#578A1C"/>
</g>
<defs>
<clipPath id="clip0_97_236">
<rect width="60" height="59" fill="white" transform="translate(7.4502 9.51465)"/>
</clipPath>
</defs>
</svg>
